<?xml version="1.0" encoding="UTF-8"?>
<svg xmlns="http://www.w3.org/2000/svg" viewBox="0 0 100 100" width="100" height="100">
  <!-- 樱花主体 - 简化设计 -->
  <g id="sakura">
    <!-- 外层花瓣 - 菱形 -->
    <path d="M50,5 C55,35 65,45 95,50 C65,55 55,65 50,95 C45,65 35,55 5,50 C35,45 45,35 50,5 Z" 
          fill="#FFB7C5" />
    
    <!-- 内层花瓣 - 更小的菱形 -->
    <path d="M50,20 C53,40 60,47 80,50 C60,53 53,60 50,80 C47,60 40,53 20,50 C40,47 47,40 50,20 Z" 
          fill="#FF99B4" />
    
    <!-- 最内层 - 十字形 -->
    <path d="M50,35 C52,45 55,48 65,50 C55,52 52,55 50,65 C48,55 45,52 35,50 C45,48 48,45 50,35 Z" 
          fill="#FFDDDF" />
    
    <!-- 花蕊 - 更小更简洁 -->
    <circle cx="50" cy="50" r="4" fill="#FFEC8B" />
  </g>
</svg> 